<svg width="38" height="38" viewBox="0 0 38 38" fill="none" xmlns="http://www.w3.org/2000/svg">
<path d="M15.2711 22.4431L36.7143 1M15.2711 22.4431L22.094 36.0888C22.1795 36.2754 22.3168 36.4336 22.4896 36.5445C22.6624 36.6553 22.8633 36.7143 23.0686 36.7143C23.2739 36.7143 23.4749 36.6553 23.6477 36.5445C23.8205 36.4336 23.9578 36.2754 24.0433 36.0888L36.7143 1M15.2711 22.4431L1.6255 15.6203C1.43886 15.5348 1.28071 15.3975 1.16982 15.2247C1.05894 15.0519 1 14.8509 1 14.6456C1 14.4403 1.05894 14.2394 1.16982 14.0666C1.28071 13.8938 1.43886 13.7565 1.6255 13.6709L36.7143 1" stroke="white" stroke-width="2" stroke-linecap="round" stroke-linejoin="round"/>
</svg>
