<svg width="11" height="11" viewBox="0 0 11 11" fill="none" xmlns="http://www.w3.org/2000/svg">
<path d="M4.49592 6.50408L10.5 0.5M4.49592 6.50408L6.40631 10.3249C6.43026 10.3771 6.4687 10.4214 6.51708 10.4524C6.56546 10.4835 6.62174 10.5 6.67922 10.5C6.7367 10.5 6.79298 10.4835 6.84136 10.4524C6.88974 10.4214 6.92819 10.3771 6.95213 10.3249L10.5 0.5M4.49592 6.50408L0.67514 4.59369C0.622881 4.56974 0.578598 4.5313 0.547551 4.48292C0.516504 4.43454 0.5 4.37826 0.5 4.32078C0.5 4.26329 0.516504 4.20702 0.547551 4.15864C0.578598 4.11026 0.622881 4.07181 0.67514 4.04787L10.5 0.5" stroke="white" stroke-linecap="round" stroke-linejoin="round"/>
</svg>
