<svg width="22" height="24" viewBox="0 0 22 24" fill="none" xmlns="http://www.w3.org/2000/svg">
<path fill-rule="evenodd" clip-rule="evenodd" d="M9 3C4.02944 3 0 7.02944 0 12C0 16.9706 4.02944 21 9 21H11C12.9702 21 14.7925 20.3669 16.2747 19.2931C17.4403 19.9103 19.3816 20.7091 22 21C19.8553 18.4263 19.9209 15.7576 19.9829 13.2384C19.9931 12.8211 20.0033 12.408 20.0033 12L20 12.0043C20 12.0029 20 12.0014 20 12C20 7.02944 15.9706 3 11 3H9Z" fill="#131415"/>
<path fill-rule="evenodd" clip-rule="evenodd" d="M12.1518 7.52686H10.2285V8.22324H11.4927V11.3404H12.1021V11.9539H11.4927V15.1373H10.2285V15.8337H12.1518V15.1373H12.8109V12H14.0254V11.3036H12.8109V8.15692H12.1518V7.52686ZM7.74969 9.43359H6.41495V10.7683H7.74969V9.43359ZM7.74969 12.6005H6.41495V13.8523H5.77661V14.5404H7.08231V13.9352H7.74969V12.6005Z" fill="#FF7900"/>
</svg>
