<svg width="104" height="26" viewBox="0 0 104 26" fill="none" xmlns="http://www.w3.org/2000/svg">
<path fill-rule="evenodd" clip-rule="evenodd" d="M9 4C4.02944 4 0 8.02944 0 13C0 17.9706 4.02944 22 9 22H11C12.9702 22 14.7925 21.3669 16.2747 20.2931C17.4403 20.9103 19.3816 21.7091 22 22C19.8553 19.4263 19.9209 16.7576 19.9829 14.2384C19.9931 13.8211 20.0033 13.408 20.0033 13L20 13.0043C20 13.0029 20 13.0014 20 13C20 8.02944 15.9706 4 11 4H9Z" fill="#131415"/>
<path fill-rule="evenodd" clip-rule="evenodd" d="M12.1518 8.52686H10.2285V9.22324H11.4927V12.3404H12.1021V12.9539H11.4927V16.1373H10.2285V16.8337H12.1518V16.1373H12.8109V13H14.0254V12.3036H12.8109V9.15692H12.1518V8.52686ZM7.74969 10.4336H6.41495V11.7683H7.74969V10.4336ZM7.74969 13.6005H6.41495V14.8523H5.77661V15.5404H7.08231V14.9352H7.74969V13.6005Z" fill="#FF7900"/>
<path d="M28.3691 19L32.7637 6.27344H36.1562L40.5596 19H37.7207L34.5127 9.14746H34.4072L31.1904 19H28.3691ZM37.8438 13.999V16.0645H31.0498V13.999H37.8438ZM42.001 6.27344H46.9756C47.9248 6.27344 48.7422 6.45508 49.4277 6.81836C50.1191 7.17578 50.6436 7.67969 51.001 8.33008C51.3584 8.98047 51.5371 9.72754 51.5371 10.5713C51.5371 11.4209 51.3525 12.168 50.9834 12.8125C50.6201 13.4512 50.0898 13.9521 49.3926 14.3154C48.7012 14.6729 47.875 14.8516 46.9141 14.8516H43.7148V12.7246H46.501C47.0107 12.7246 47.4385 12.6367 47.7842 12.4609C48.1357 12.2793 48.3965 12.0273 48.5664 11.7051C48.7363 11.3828 48.8213 11.0049 48.8213 10.5713C48.8213 10.1377 48.7363 9.7627 48.5664 9.44629C48.3965 9.12402 48.1357 8.87793 47.7842 8.70801C47.4385 8.53223 47.0078 8.44434 46.4922 8.44434H44.6377V19H42.001V6.27344ZM53.2158 6.27344H58.1904C59.1396 6.27344 59.957 6.45508 60.6426 6.81836C61.334 7.17578 61.8584 7.67969 62.2158 8.33008C62.5732 8.98047 62.752 9.72754 62.752 10.5713C62.752 11.4209 62.5674 12.168 62.1982 12.8125C61.835 13.4512 61.3047 13.9521 60.6074 14.3154C59.916 14.6729 59.0898 14.8516 58.1289 14.8516H54.9297V12.7246H57.7158C58.2256 12.7246 58.6533 12.6367 58.999 12.4609C59.3506 12.2793 59.6113 12.0273 59.7812 11.7051C59.9512 11.3828 60.0361 11.0049 60.0361 10.5713C60.0361 10.1377 59.9512 9.7627 59.7812 9.44629C59.6113 9.12402 59.3506 8.87793 58.999 8.70801C58.6533 8.53223 58.2227 8.44434 57.707 8.44434H55.8525V19H53.2158V6.27344ZM63.9209 6.27344H74.3447V8.45312H70.4424V19H67.832V8.45312H63.9209V6.27344ZM78.6338 19H75.9971V6.27344H78.6338V19ZM86.1133 15.9766H86.2363L89.3389 6.27344H92.2744L87.8711 19H84.4785L80.084 6.27344H83.0107L86.1133 15.9766ZM93.7158 6.27344H102.259V8.45312H96.3525V11.5469H101.811V13.7178H96.3525V16.8203H102.276V19H93.7158V6.27344Z" fill="#191B1C"/>
</svg>
