<svg width="131" height="118" viewBox="0 0 131 118" fill="none" xmlns="http://www.w3.org/2000/svg">
<path fill-rule="evenodd" clip-rule="evenodd" d="M0 5.9C0 2.64152 2.66594 0 5.95455 0H41.6818C49.578 0 57.1508 3.10802 62.7343 8.64035C63.7363 9.6332 64.6596 10.6895 65.5 11.7998C66.3404 10.6895 67.2637 9.6332 68.2657 8.64035C73.8492 3.10802 81.422 0 89.3182 0H125.045C128.334 0 131 2.64152 131 5.9V94.4C131 97.6585 128.334 100.3 125.045 100.3H83.3636C80.2051 100.3 77.176 101.543 74.9426 103.756C72.7093 105.969 71.4545 108.97 71.4545 112.1C71.4545 115.358 68.7886 118 65.5 118C62.2114 118 59.5455 115.358 59.5455 112.1C59.5455 108.97 58.2908 105.969 56.0574 103.756C53.824 101.543 50.7949 100.3 47.6364 100.3H5.95455C2.66594 100.3 0 97.6585 0 94.4V5.9ZM59.5455 91.6617C55.9554 89.6082 51.8535 88.5 47.6364 88.5H11.9091V11.8H41.6818C46.4196 11.8 50.9632 13.6648 54.3133 16.9842C57.6634 20.3036 59.5455 24.8057 59.5455 29.5V91.6617ZM71.4545 91.6617C75.0446 89.6082 79.1465 88.5 83.3636 88.5H119.091V11.8H89.3182C84.5805 11.8 80.0368 13.6648 76.6867 16.9842C73.3366 20.3036 71.4545 24.8057 71.4545 29.5V91.6617ZM23.8182 35.4C23.8182 32.1415 26.4841 29.5 29.7727 29.5H41.6818C44.9704 29.5 47.6364 32.1415 47.6364 35.4C47.6364 38.6585 44.9704 41.3 41.6818 41.3H29.7727C26.4841 41.3 23.8182 38.6585 23.8182 35.4ZM83.3636 35.4C83.3636 32.1415 86.0296 29.5 89.3182 29.5H101.227C104.516 29.5 107.182 32.1415 107.182 35.4C107.182 38.6585 104.516 41.3 101.227 41.3H89.3182C86.0296 41.3 83.3636 38.6585 83.3636 35.4ZM23.8182 59C23.8182 55.7415 26.4841 53.1 29.7727 53.1H41.6818C44.9704 53.1 47.6364 55.7415 47.6364 59C47.6364 62.2585 44.9704 64.9 41.6818 64.9H29.7727C26.4841 64.9 23.8182 62.2585 23.8182 59ZM83.3636 59C83.3636 55.7415 86.0296 53.1 89.3182 53.1H101.227C104.516 53.1 107.182 55.7415 107.182 59C107.182 62.2585 104.516 64.9 101.227 64.9H89.3182C86.0296 64.9 83.3636 62.2585 83.3636 59Z" fill="#FF861A"/>
</svg>
