<svg width="131" height="108" viewBox="0 0 131 108" fill="none" xmlns="http://www.w3.org/2000/svg">
<path fill-rule="evenodd" clip-rule="evenodd" d="M11.3455 10.5029C18.5622 3.73398 28.3239 -0.0438758 38.4831 0.000384565C48.6424 0.0446449 58.3669 3.9074 65.5176 10.7389C72.6648 17.5672 76.6553 26.8024 76.6124 36.4145V68.5359C76.6124 68.6967 76.6051 68.8573 76.5906 69.0175C76.1863 73.4821 74.0932 77.6586 70.6961 80.7793C67.299 83.8999 62.8261 85.7551 58.0997 86.0036C57.7816 86.0204 57.4626 86.0129 57.1458 85.9814L52.4094 85.5094V102.361C52.4094 105.475 49.743 107.999 46.4539 107.999C43.1648 107.999 40.4985 105.475 40.4985 102.361V79.2473C40.4985 77.6494 41.2148 76.1266 42.4693 75.0575C43.7238 73.9884 45.3986 73.4734 47.0774 73.6407L57.8488 74.714C59.5582 74.5376 61.1615 73.8266 62.4011 72.6878C63.687 71.5066 64.4986 69.9414 64.7014 68.2605V36.376C64.7337 29.7494 61.9838 23.3821 57.0566 18.6748C52.1294 13.9675 45.4286 11.3059 38.4283 11.2754C31.428 11.2449 24.7016 13.848 19.7289 18.5122C14.7593 23.1734 11.9479 29.5114 11.9122 36.1335C11.9133 43.5151 12.8183 47.1786 13.7966 49.865C14.1715 50.8946 14.5364 51.7397 14.9638 52.7295C15.1761 53.2212 15.4038 53.7487 15.6558 54.3522C16.366 56.0527 17.0993 57.9887 17.699 60.4367C19.304 66.3884 19.3679 72.6192 17.8848 78.5998C17.884 78.6029 17.8832 78.6059 17.8825 78.609L11.7586 103.633C11.0163 106.667 7.81704 108.556 4.61278 107.853C1.40852 107.151 -0.587313 104.122 0.154961 101.089L6.28313 76.047L6.28745 76.0294C7.33826 71.797 7.28926 67.3864 6.14467 63.1758C6.13189 63.1288 6.11975 63.0816 6.10825 63.0343C5.68671 61.2989 5.17075 59.9142 4.57902 58.4973C4.42788 58.1354 4.25609 57.7369 4.07248 57.3111C3.58869 56.189 3.02277 54.8764 2.53593 53.5395C1.0492 49.4568 0.00132438 44.5146 0.00132438 36.1201V36.0941C0.0480807 26.4772 4.12873 17.2718 11.3455 10.5029ZM107.773 26.1949C110.101 23.9947 113.871 23.9969 116.196 26.1999C125.679 35.1881 131.004 47.373 131 60.0763C130.996 72.7796 125.664 84.9616 116.175 93.9447C113.85 96.1464 110.079 96.1467 107.753 93.9452C105.427 91.7437 105.427 88.1742 107.753 85.9725C115.009 79.1031 119.086 69.7874 119.089 60.0731C119.092 50.3588 115.02 41.0409 107.768 34.1676C105.444 31.9646 105.446 28.3951 107.773 26.1949ZM90.8861 42.181C93.1881 39.9572 96.9587 39.921 99.308 42.1001C101.838 44.4471 103.852 47.2457 105.232 50.334C106.613 53.4223 107.333 56.739 107.35 60.0924C107.368 63.4457 106.684 66.7691 105.336 69.8704C103.988 72.9717 102.005 75.7893 99.4994 78.1602C97.1734 80.3616 93.4026 80.3613 91.0771 78.1594C88.7516 75.9576 88.752 72.3881 91.078 70.1867C92.4697 68.8695 93.5718 67.3042 94.3205 65.5813C95.0691 63.8583 95.4495 62.012 95.4396 60.149C95.4298 58.2861 95.0298 56.4434 94.2629 54.7277C93.4959 53.012 92.3773 51.4572 90.9716 50.1533C88.6224 47.9742 88.5841 44.4049 90.8861 42.181Z" fill="#FF861A"/>
</svg>
