<svg width="91" height="110" viewBox="0 0 91 110" fill="none" xmlns="http://www.w3.org/2000/svg">
<path fill-rule="evenodd" clip-rule="evenodd" d="M18 10C16.0109 10 14.1032 10.7902 12.6967 12.1967C11.2902 13.6032 10.5 15.5109 10.5 17.5V76.6886C12.8221 75.5872 15.3808 75 18 75H80.5V10H18ZM90.5 10C90.5 7.34785 89.4464 4.8043 87.5711 2.92893C85.6957 1.05356 83.1522 0 80.5 0H18C13.3587 0 8.90752 1.84374 5.62563 5.12563C2.34374 8.40752 0.5 12.8587 0.5 17.5V92.5C0.5 97.1413 2.34374 101.592 5.62563 104.874C8.90752 108.156 13.3587 110 18 110H80.5C83.1521 110 85.6957 108.946 87.5711 107.071C89.4464 105.196 90.5 102.652 90.5 100V10ZM80.5 85H18C16.0109 85 14.1032 85.7902 12.6967 87.1967C11.2902 88.6032 10.5 90.5109 10.5 92.5C10.5 94.4891 11.2902 96.3968 12.6967 97.8033C14.1032 99.2098 16.0109 100 18 100H80.5V85ZM45.5 25C48.2614 25 50.5 27.2386 50.5 30V40H60.5C63.2614 40 65.5 42.2386 65.5 45C65.5 47.7614 63.2614 50 60.5 50H50.5V60C50.5 62.7614 48.2614 65 45.5 65C42.7386 65 40.5 62.7614 40.5 60V50H30.5C27.7386 50 25.5 47.7614 25.5 45C25.5 42.2386 27.7386 40 30.5 40H40.5V30C40.5 27.2386 42.7386 25 45.5 25Z" fill="#FF861A"/>
</svg>
