<svg width="83" height="128" viewBox="0 0 83 128" fill="none" xmlns="http://www.w3.org/2000/svg">
<path fill-rule="evenodd" clip-rule="evenodd" d="M12.5086 11.9287C20.1976 4.2909 30.6261 0 41.5 0C52.3739 0 62.8024 4.2909 70.4914 11.9287C78.1804 19.5666 82.5 29.9257 82.5 40.7273C82.5 49.6784 79.0555 58.838 71.8977 65.3055C67.6683 69.5235 65.6573 72.5932 64.8148 76.7774C64.1804 79.9283 61.0947 81.9717 57.9227 81.3416C54.7508 80.7114 52.6936 77.6462 53.328 74.4953C54.8218 67.0763 58.6426 62.016 63.7155 56.9768C63.7881 56.9047 63.8626 56.8345 63.9389 56.7663C68.4123 52.767 70.7857 46.8526 70.7857 40.7273C70.7857 33.0119 67.7003 25.6125 62.2081 20.1569C56.716 14.7013 49.2671 11.6364 41.5 11.6364C33.7329 11.6364 26.284 14.7013 20.7919 20.1569C15.2997 25.6125 12.2143 33.0119 12.2143 40.7273C12.2143 45.4066 13.0263 50.7603 19.2845 56.9768C23.7139 61.3768 28.1683 67.0271 29.672 74.4953C30.3064 77.6462 28.2492 80.7114 25.0773 81.3416C21.9053 81.9717 18.8196 79.9283 18.1852 76.7774C17.346 72.6093 14.7719 68.9505 11.0012 65.205C2.03086 56.2943 0.5 47.6844 0.5 40.7273C0.5 29.9257 4.81963 19.5666 12.5086 11.9287ZM18.0714 98.9091C18.0714 95.6958 20.6938 93.0909 23.9286 93.0909H59.0714C62.3062 93.0909 64.9286 95.6958 64.9286 98.9091C64.9286 102.122 62.3062 104.727 59.0714 104.727H23.9286C20.6938 104.727 18.0714 102.122 18.0714 98.9091ZM23.9286 122.182C23.9286 118.969 26.5509 116.364 29.7857 116.364H53.2143C56.4491 116.364 59.0714 118.969 59.0714 122.182C59.0714 125.395 56.4491 128 53.2143 128H29.7857C26.5509 128 23.9286 125.395 23.9286 122.182Z" fill="#FF861A"/>
</svg>
