<svg width="117" height="86" viewBox="0 0 117 86" fill="none" xmlns="http://www.w3.org/2000/svg">
<path fill-rule="evenodd" clip-rule="evenodd" d="M36.1454 12.3389C37.9515 14.1242 37.9515 17.0187 36.1454 18.8039L11.6657 43L36.1454 67.1961C37.9515 68.9813 37.9515 71.8758 36.1454 73.6611C34.3392 75.4463 31.4108 75.4463 29.6046 73.6611L1.85463 46.2325C0.0484562 44.4472 0.0484562 41.5528 1.85463 39.7675L29.6046 12.3389C31.4108 10.5537 34.3392 10.5537 36.1454 12.3389Z" fill="#FF861A"/>
<path fill-rule="evenodd" clip-rule="evenodd" d="M80.8546 73.6611C79.0485 71.8758 79.0485 68.9813 80.8546 67.1961L105.334 43L80.8546 18.8039C79.0485 17.0187 79.0485 14.1242 80.8546 12.3389C82.6608 10.5537 85.5892 10.5537 87.3954 12.3389L115.145 39.7675C116.952 41.5528 116.952 44.4472 115.145 46.2325L87.3954 73.6611C85.5892 75.4463 82.6608 75.4463 80.8546 73.6611Z" fill="#FF861A"/>
<path fill-rule="evenodd" clip-rule="evenodd" d="M66.3148 1.32118C68.8335 1.79344 70.4925 4.21809 70.0202 6.73678L56.1006 80.9731C55.6283 83.4918 53.2037 85.1508 50.685 84.6785C48.1663 84.2063 46.5073 81.7816 46.9796 79.2629L60.8992 5.02656C61.3715 2.50787 63.7961 0.848912 66.3148 1.32118Z" fill="#FF861A"/>
</svg>
