<svg width="123" height="112" viewBox="0 0 123 112" fill="none" xmlns="http://www.w3.org/2000/svg">
<path fill-rule="evenodd" clip-rule="evenodd" d="M44.7273 11.2C35.464 11.2 27.9545 18.7216 27.9545 28C27.9545 37.2784 35.464 44.8 44.7273 44.8C53.9906 44.8 61.5 37.2784 61.5 28C61.5 18.7216 53.9906 11.2 44.7273 11.2ZM16.7727 28C16.7727 12.536 29.2884 0 44.7273 0C60.1661 0 72.6818 12.536 72.6818 28C72.6818 43.464 60.1661 56 44.7273 56C29.2884 56 16.7727 43.464 16.7727 28ZM78.4474 4.93898C79.2133 1.94284 82.2591 0.135866 85.2504 0.903001C91.2635 2.44511 96.5932 5.94791 100.399 10.8592C104.205 15.7704 106.271 21.8108 106.271 28.028C106.271 34.2452 104.205 40.2856 100.399 45.1968C96.5932 50.1081 91.2635 53.6109 85.2504 55.153C82.2591 55.9201 79.2133 54.1132 78.4474 51.117C77.6815 48.1209 79.4856 45.0701 82.4769 44.303C86.0847 43.3777 89.2826 41.2761 91.5662 38.3293C93.8498 35.3825 95.0893 31.7583 95.0893 28.028C95.0893 24.2977 93.8498 20.6735 91.5662 17.7267C89.2826 14.7799 86.0847 12.6783 82.4769 11.753C79.4856 10.9859 77.6815 7.93513 78.4474 4.93898ZM8.1877 75.401C13.4302 70.15 20.5405 67.2 27.9545 67.2H61.5C68.914 67.2 76.0244 70.15 81.2668 75.401C86.5093 80.652 89.4545 87.7739 89.4545 95.2V106.4C89.4545 109.493 86.9514 112 83.8636 112C80.7759 112 78.2727 109.493 78.2727 106.4V95.2C78.2727 90.7444 76.5056 86.4712 73.3601 83.3206C70.2146 80.17 65.9484 78.4 61.5 78.4H27.9545C23.5061 78.4 19.2399 80.17 16.0944 83.3206C12.9489 86.4712 11.1818 90.7444 11.1818 95.2V106.4C11.1818 109.493 8.67868 112 5.59091 112C2.50313 112 0 109.493 0 106.4V95.2C0 87.7739 2.9452 80.652 8.1877 75.401ZM95.223 72.128C95.9949 69.1334 99.0444 67.3326 102.034 68.1058C108.031 69.6568 113.344 73.1588 117.139 78.062C120.934 82.9652 122.995 88.9919 123 95.1958V106.4C123 109.493 120.497 112 117.409 112C114.321 112 111.818 109.493 111.818 106.4V95.2042C111.815 91.4818 110.578 87.8658 108.302 84.9239C106.025 81.982 102.837 79.8808 99.2386 78.9502C96.2489 78.177 94.451 75.1226 95.223 72.128Z" fill="#FF861A"/>
</svg>
