<svg width="125" height="92" viewBox="0 0 125 92" fill="none" xmlns="http://www.w3.org/2000/svg">
<path fill-rule="evenodd" clip-rule="evenodd" d="M62.5 10.8237C42.9336 10.8237 24.0537 17.6926 9.46974 30.1172C7.13083 32.1098 3.53888 31.9191 1.44689 29.6913C-0.645091 27.4635 -0.444919 24.0422 1.89399 22.0496C18.5613 7.85016 40.1384 0 62.5 0C84.8616 0 106.439 7.85016 123.106 22.0496C125.445 24.0422 125.645 27.4635 123.553 29.6913C121.461 31.9191 117.869 32.1098 115.53 30.1172C100.946 17.6926 82.0664 10.8237 62.5 10.8237ZM62.5 37.8836C49.1149 37.8836 36.2634 42.8824 26.7046 51.8068C24.4636 53.899 20.8663 53.8648 18.6697 51.7303C16.4731 49.5958 16.5091 46.1693 18.75 44.0771C30.4331 33.1695 46.1405 27.0598 62.5 27.0598C78.8595 27.0598 94.5669 33.1695 106.25 44.0771C108.491 46.1693 108.527 49.5958 106.33 51.7303C104.134 53.8648 100.536 53.899 98.2954 51.8068C88.7366 42.8824 75.8851 37.8836 62.5 37.8836ZM62.5 64.9391C56.5511 64.9391 50.8393 67.1608 46.5909 71.1272C44.35 73.2194 40.7526 73.1851 38.556 71.0506C36.3594 68.9161 36.3954 65.4897 38.6364 63.3975C45.0089 57.4479 53.5766 54.1153 62.5 54.1153C71.4234 54.1153 79.9911 57.4479 86.3636 63.3975C88.6046 65.4897 88.6406 68.9161 86.444 71.0506C84.2474 73.1851 80.65 73.2194 78.4091 71.1272C74.1607 67.1608 68.4489 64.9391 62.5 64.9391ZM56.8182 86.5881C56.8182 83.5992 59.362 81.1763 62.5 81.1763H62.5568C65.6948 81.1763 68.2386 83.5992 68.2386 86.5881C68.2386 89.577 65.6948 92 62.5568 92H62.5C59.362 92 56.8182 89.577 56.8182 86.5881Z" fill="#FF861A"/>
</svg>
