<svg width="123" height="112" viewBox="0 0 123 112" fill="none" xmlns="http://www.w3.org/2000/svg">
<path fill-rule="evenodd" clip-rule="evenodd" d="M0 5.6C0 2.50721 2.50313 0 5.59091 0H117.409C120.497 0 123 2.50721 123 5.6C123 8.69279 120.497 11.2 117.409 11.2V67.2C117.409 71.6556 115.642 75.9288 112.496 79.0794C109.351 82.23 105.085 84 100.636 84H74.9976L93.4079 102.44C95.5913 104.627 95.5913 108.173 93.4079 110.36C91.2245 112.547 87.6846 112.547 85.5012 110.36L61.5 86.3196L37.4988 110.36C35.3154 112.547 31.7755 112.547 29.5921 110.36C27.4087 108.173 27.4087 104.627 29.5921 102.44L48.0024 84H22.3636C17.9152 84 13.649 82.23 10.5035 79.0794C7.35803 75.9288 5.59091 71.6556 5.59091 67.2V11.2C2.50313 11.2 0 8.69279 0 5.6ZM16.7727 11.2V67.2C16.7727 68.6852 17.3618 70.1096 18.4103 71.1598C19.4588 72.21 20.8808 72.8 22.3636 72.8H61.4961C61.4987 72.8 61.5013 72.8 61.5039 72.8H100.636C102.119 72.8 103.541 72.21 104.59 71.1598C105.638 70.1096 106.227 68.6852 106.227 67.2V11.2H16.7727Z" fill="#FF861A"/>
</svg>
